<svg xmlns="http://www.w3.org/2000/svg" viewBox="0 0 32 32">
  <rect width="32" height="32" rx="7" fill="#18181b"/>
  <g transform="translate(4, 4)" stroke="white" stroke-width="2" stroke-linecap="round" stroke-linejoin="round" fill="none">
    <path d="M14.106 5.553a2 2 0 0 0 1.788 0l3.659-1.83A1 1 0 0 1 21 4.619v12.764a1 1 0 0 1-.553.894l-4.553 2.277a2 2 0 0 1-1.788 0l-4.212-2.106a2 2 0 0 0-1.788 0l-3.659 1.83A1 1 0 0 1 3 19.381V6.618a1 1 0 0 1 .553-.894l4.553-2.277a2 2 0 0 1 1.788 0z"/>
    <line x1="15" y1="5.764" x2="15" y2="20.764"/>
    <line x1="9" y1="3.236" x2="9" y2="18.236"/>
  </g>
</svg>
